<svg width="16" height="17" viewBox="0 0 16 17" fill="none" xmlns="http://www.w3.org/2000/svg">
<rect width="16" height="17" fill="#F5F5F5"/>
<rect width="800" height="1377.54" transform="translate(-323 -889)" fill="white"/>
<rect width="480" height="140" transform="translate(-163 -58.8086)" fill="#F9F9F9"/>
<path d="M7.30279 11.7951H8.71179V7.59906H7.30279V11.7951ZM8.00779 1.28906C4.14779 1.28906 1.00879 4.42806 1.00879 8.28806C1.00879 12.1481 4.14779 15.3031 8.00779 15.3031C11.8678 15.3031 15.0228 12.1641 15.0228 8.28806C15.0228 4.41206 11.8838 1.28906 8.00779 1.28906ZM8.00779 13.9091C4.91679 13.9091 2.40279 11.3791 2.40279 8.28806C2.40279 5.19706 4.91679 2.68306 8.00779 2.68306C11.0988 2.68306 13.6128 5.21306 13.6128 8.28806C13.6128 11.3631 11.0988 13.9091 8.00779 13.9091ZM7.30279 6.19006H8.71179V4.79706H7.30279V6.19006Z" fill="#767676"/>
</svg>
