<svg xmlns="http://www.w3.org/2000/svg" width="28" height="29" viewBox="0 0 28 29" fill="none">
  <g clip-path="url(#clip0_3671_963)">
    <path d="M19.992 15.1813L10.892 9.66525C10.052 9.18925 9.04403 9.77725 9.04403 10.7293V21.5093C9.04403 22.4613 10.052 23.0493 10.892 22.6013L19.992 17.3653C20.832 16.8893 20.832 15.6573 19.992 15.1813ZM26.824 16.1333C26.824 9.02125 21.084 3.28125 14 3.28125C6.91603 3.28125 1.17603 9.02125 1.17603 16.1333C1.17603 23.2453 6.91603 28.9573 14 28.9573C21.084 28.9573 26.824 23.2173 26.824 16.1333ZM3.64003 16.1333C3.64003 10.3933 8.28803 5.77325 14 5.77325C19.712 5.77325 24.36 10.3933 24.36 16.1333C24.36 21.8733 19.712 26.4653 14 26.4653C8.28803 26.4653 3.64003 21.8453 3.64003 16.1333Z" fill="white"/>
  </g>
  <defs>
    <clipPath id="clip0_3671_963">
      <rect width="28" height="28" fill="white" transform="translate(0 0.957031)"/>
    </clipPath>
  </defs>
</svg>