<svg width="59" height="42" viewBox="0 0 59 42" fill="none" xmlns="http://www.w3.org/2000/svg">
    <path d="M49.8784 24H47.0946V28.1132H43V30.9004H47.0946V35H49.8784V30.9004H54V28.1132H49.8784V24Z" fill="#277ACA"/>
    <path d="M48.4933 19C42.7868 19 38 23.6815 38 29.4866C38 35.1075 42.8351 40 48.4933 40C54.2827 40 59 35.2797 59 29.4866C59 23.7789 54.1971 19 48.4933 19ZM48.4933 38.4176C43.7027 38.4176 39.5948 34.2697 39.5948 29.5134C39.5948 24.599 43.6541 20.6226 48.4799 20.6226C53.3247 20.6226 57.3784 24.6845 57.3784 29.5268C57.3918 34.4215 53.3982 38.4176 48.4933 38.4176Z" fill="#277ACA"/>
    <path d="M36.0933 32.6565H12.1287C10.2469 32.6565 8.71404 31.5022 8.3028 29.7952C6.71754 22.6541 7.5 11 8.45234 4.01895C7.80155 3.92734 7.42353 4.41463 7.2809 4.97681C5.15399 12.6223 3.18215 20.3108 1 27.9409C1 29.9379 1.83978 31.6404 4.01583 32.2144C13.7026 34.7504 23.3813 37.3175 33.065 39.8651C35.7421 40.5643 37.3485 38.6336 38 36.3406C37.1611 35.2674 36.4312 33.9884 36.0933 32.6565Z" fill="#C4D9EE"/>
    <path d="M49.9186 3.2804C49.9186 1 47.8846 0 45.4437 0C34.2911 0 13.2236 0.0653467 11 0.0653467C8.77641 0.0653467 7.04715 2.13058 7 4.1299C7 12.1876 7 23 7.14916 29.9549C7.59666 31.7715 9.26459 33 11.3122 33C13.8265 33 36.1922 33.045 36.1922 32.9477C36.0294 32.4119 35.9074 31.863 35.8125 31.301H11.4207C10.1595 31.301 9.15644 30.6526 8.78997 29.4844C8.74929 29.3667 8.77641 4.2998 8.77641 4.2998C8.77641 2.56159 9.69852 1.68594 11.5156 1.68594H45.4573C47.2879 1.68594 48.2236 2 48.2236 5V17.343C48.4164 17.3275 50.0508 17.2837 50 17.2776C50 13.1845 49.9186 9 49.9186 3.2804Z" fill="#3B435A"/>
    <path d="M17.0415 6C17.0161 6 17.0034 6 16.9781 6C16.9273 6 16.8892 6 16.8384 6C14.7051 6.07643 12.9909 7.82166 12.9782 9.97452C12.9655 11.0446 13.3718 12.0382 14.1337 12.8025C14.8829 13.5669 15.886 13.9873 16.9527 14H16.9781C18.0574 14 19.0605 13.5796 19.8097 12.8153C20.5589 12.051 20.9779 11.0573 20.9779 9.98726C20.9652 7.80892 19.2129 6.03822 17.0415 6ZM16.9781 12.3694C15.6829 12.3694 14.6289 11.2994 14.6289 10C14.6289 8.72611 15.594 7.71975 16.8384 7.64331C16.8892 7.64331 16.9273 7.63057 16.9781 7.63057C17.0034 7.63057 17.0161 7.63057 17.0415 7.63057C18.2986 7.66879 19.3272 8.71338 19.3272 9.98726C19.3272 11.3121 18.2732 12.3694 16.9781 12.3694Z" fill="#3B435A"/>
    <path d="M8.33912 31.117C11.5 28 14.7437 24.6106 17.8886 21.5027C18.6396 20.7928 19.4394 20.78 20.1811 21.5162C21.3069 22.6204 22.4464 23.7515 23.5587 24.8556L23.5994 24.896C24.2662 25.558 24.7801 25.5439 25.3763 24.8287C28.0621 21.6374 31.182 17.9479 34.1662 14.3796C34.8732 13.5568 35.7789 13.4915 36.4994 14.3392C38.1271 16.2109 39.8091 18.1499 41.4776 20.0889C41.993 19.7691 42.4814 19.4128 43.0375 19.1598C41.2967 17.1529 39.5665 15.1369 37.8287 13.1273C36.3218 11.4098 34.1996 11.5725 32.7826 13.2216C29.9931 16.5138 27.397 20.0894 24.3319 23.1321C23.3506 22.1579 22.3842 21.1696 21.3883 20.2101C19.9997 18.8316 18.065 18.8894 16.6814 20.237C13.7795 23.1013 10.8727 25.9612 8 28.8548C8 28.8548 8.48392 31.2813 8.33912 31.117Z" fill="#3B435A"/>
</svg>