<svg xmlns="http://www.w3.org/2000/svg" width="59" height="42" viewBox="0 0 59 42" fill="none">
  <path d="M49.8784 24H48.5H48.2297H47.9595H47.0946V28.1132H46.1487H45.8649H45.6081H43V30.0074V30.278V30.5486V30.9004H46.9459H47.0946V31.1169V31.5363V35H49.8784V30.9004H54V28.1132H49.8784V24Z" fill="#277ACA"/>
  <path d="M48.8283 19.0134C48.7345 19.0134 48.6541 19.0134 48.5603 19C48.5335 19 48.5201 19 48.4933 19C48.4263 19 48.3593 19 48.2923 19C47.6892 19.0134 47.113 19.0671 46.5367 19.1743C46.4563 19.1877 46.3625 19.2011 46.2821 19.228C46.2017 19.2414 46.1078 19.2682 46.0274 19.2816C45.6522 19.3755 45.277 19.4828 44.9151 19.6169C44.8213 19.6437 44.7409 19.6839 44.6471 19.7241C44.5533 19.7644 44.4729 19.7912 44.3791 19.8314C43.8162 20.0728 43.2802 20.3678 42.7709 20.6897C42.6905 20.7433 42.6235 20.7835 42.5565 20.8372C42.4895 20.8908 42.4091 20.9444 42.3421 20.9847C39.7154 22.9023 38 26 38 29.4866C38 29.567 38 29.6475 38 29.728C38 29.8218 38 29.9023 38.0134 29.9962C38.0134 30.09 38.0268 30.1705 38.0268 30.2644C38.0402 30.3716 38.0402 30.4789 38.0536 30.5862C38.1072 31.069 38.1876 31.5517 38.3082 32.0077C38.335 32.0881 38.3484 32.182 38.3752 32.2625C38.402 32.3563 38.4288 32.4502 38.4556 32.5441C38.5227 32.7452 38.5897 32.9598 38.6567 33.1609C40.1442 37.1571 43.9904 40 48.4933 40C54.2827 40 59 35.2797 59 29.4866C59 23.8276 54.4703 19.1877 48.8283 19.0134ZM48.4933 38.4176C44.6605 38.4176 41.3906 35.977 40.1442 32.5709C40.104 32.477 40.0772 32.3831 40.0504 32.2893C40.0236 32.2088 39.9968 32.1149 39.97 32.0345C39.8092 31.4713 39.6886 30.8946 39.635 30.2912C39.6216 30.1973 39.6216 30.1169 39.6082 30.023C39.6082 29.9291 39.5948 29.8487 39.5948 29.7548C39.5948 29.6743 39.5948 29.5939 39.5948 29.5134C39.5948 26.5096 41.0957 23.841 43.3874 22.2318C43.4544 22.1782 43.5348 22.1245 43.6018 22.0843C43.6822 22.0307 43.7492 21.9904 43.8296 21.9368C44.3523 21.6149 44.9151 21.3467 45.4914 21.1322C45.5852 21.1054 45.679 21.0651 45.7594 21.0383C45.9336 20.9847 46.0944 20.931 46.2687 20.8908C46.3491 20.864 46.4429 20.8506 46.5233 20.8372C47.0861 20.7031 47.6758 20.636 48.2789 20.6226C48.3459 20.6226 48.4129 20.6226 48.4799 20.6226C48.5067 20.6226 48.5201 20.6226 48.5469 20.6226C48.6407 20.6226 48.7211 20.6226 48.8149 20.636C53.5724 20.8103 57.3784 24.7261 57.3784 29.5268C57.3918 34.4215 53.3982 38.4176 48.4933 38.4176Z" fill="#277ACA"/>
  <path d="M36.1805 32.9374C36.1431 32.8392 36.1182 32.7532 36.0933 32.655H12.1287C10.2469 32.655 8.71405 31.5006 8.3028 29.7937C8.21556 29.4007 8.17817 29.0691 8.17817 28.7867C8.16571 21.0378 8.16571 13.1539 8.16571 5.52784C8.16571 4.98751 8.26541 4.47174 8.45234 4.01737C8.36511 4.00509 8.27787 3.99281 8.19064 4.00509C8.09094 4.01737 7.99124 4.04193 7.90401 4.07877C7.66723 4.18929 7.46783 4.39806 7.36814 4.6805C7.33075 4.77874 7.30583 4.87699 7.2809 4.97523C6.39609 8.15582 3.01886 20.6817 2.14651 23.8746C1.77265 25.2254 1.38633 26.5885 1 27.9393V29.0814C1.02492 29.1305 1.06231 29.1796 1.07477 29.2288C1.43617 30.8252 2.43314 31.7953 4.01583 32.2129C8.19064 33.3058 12.353 34.411 16.5278 35.504C22.036 36.9653 27.5568 38.4144 33.065 39.8635C35.1337 40.4038 37.1152 39.2986 37.7258 37.2846C37.8255 36.9653 37.9128 36.646 38 36.339C37.2897 35.4303 36.7164 34.3988 36.3052 33.3058C36.2553 33.183 36.2179 33.0602 36.1805 32.9374Z" fill="#C4D9EE"/>
  <path d="M49.9864 3.43723L49.9593 3.41109L49.9186 3.2804C49.2677 1.00634 47.8846 0 45.4437 0H11.5292C11.163 0 10.7291 0 10.363 0.0653465C8.89846 0.352871 7.80006 1.25465 7.31189 2.52238C7.12204 3.00594 7.01356 3.55485 7 4.1299C7 12.2459 7 20.6364 7.01356 28.8832C7.01356 29.1838 7.05424 29.5366 7.14916 29.9548C7.59666 31.7715 9.26459 33 11.3122 33H36.3753C36.1922 32.9766 36.1922 32.9608 36.1922 32.9477C36.0294 32.4119 35.9074 31.863 35.8125 31.301H11.4207C10.5121 31.301 9.8748 31.0527 9.38663 30.5168L9.29171 30.4123L9.10186 30.2032C9.10186 30.2032 8.96626 30.0463 8.78997 29.4844C8.74929 29.3667 8.77641 4.2998 8.77641 4.2998C8.77641 2.56158 9.69852 1.68594 11.5156 1.68594H45.4573C47.2879 1.68594 48.2236 2.57465 48.2236 7.61941V17.343C48.549 17.3168 48.888 17.2907 49.2271 17.2776C49.322 17.2776 49.4169 17.2646 49.5118 17.2646C49.5389 17.2646 49.5796 17.2646 49.6067 17.2646C49.7288 17.2646 49.8644 17.2646 49.9864 17.2776H50C50 12.5204 49.9864 7.21426 49.9864 3.43723Z" fill="#3B435A"/>
  <path d="M30.3252 5.04178C30.2178 5.01393 30.0951 5 30.0031 5C29.7577 5 29.4969 5.09748 29.2362 5.30637C27.135 6.85212 24.5123 8.74602 21.6595 10.807L21.6442 10.821L21.6135 10.8349C21.5368 10.8627 21.4601 10.9045 21.3681 10.9045H19.9264H19.4816H19.0368H17.9172C16.7515 10.9184 16 11.6008 16 12.6592V14.2606V14.9708V15.9874V18.3269C16 19.4271 16.7515 20.1094 17.9632 20.1094H18.8834H19.2822H19.681H21.3834C21.4601 20.1094 21.5521 20.1373 21.6288 20.193C22.8558 21.0703 23.8374 21.7805 24.7117 22.4211L25.4018 22.9224L29.2669 25.7215C29.5276 25.9164 29.773 26 30.0031 26C30.0644 26 30.1104 25.9861 30.1871 25.9861H30.2178C30.7239 25.8886 31 25.5265 31 24.9695V17.7977V15.5139V14.7202V6.12798V6.07228C31 5.98873 31 5.90517 30.9847 5.82162C30.954 5.44562 30.7086 5.18103 30.3252 5.04178ZM20.8926 12.9934V18.0066V18.2434H20.6319H18.3313H18.0706V18.0066V12.9934V12.7566H18.3313H20.6319H20.8926V12.9934ZM29.0061 8.34218V22.6718V23.1591L28.5767 22.8528L28.3466 22.6857C27.0429 21.7387 25.6779 20.75 24.3589 19.7891L23.0245 18.8143L22.9325 18.7447V18.6333C22.9172 16.6558 22.9172 14.6088 22.9325 12.3806V12.2692L23.0245 12.1996C25.0798 10.7095 26.8589 9.40053 28.4847 8.23077L28.5767 8.16114L29.0061 7.84085V8.34218Z" fill="#3B435A"/>
  <path d="M40 15.896C40 15.8721 39.9875 15.8602 39.9875 15.8362C39.9875 15.8243 39.9749 15.8123 39.9749 15.7884C39.8495 14.2576 39.348 12.8583 38.4702 11.6145C38.1693 11.196 37.8182 10.8132 37.4671 10.4425L37.2665 10.2272C37.1411 10.0837 36.953 10 36.7524 10C36.6395 10 36.5141 10.0239 36.4013 10.0837C36.1003 10.2272 35.9498 10.5143 36.0251 10.8132C36.0627 10.9568 36.163 11.1362 36.3009 11.2677C36.8652 11.8537 37.3041 12.4397 37.6552 13.0856C38.1442 13.9706 38.4326 14.9512 38.5078 16.0156C38.5956 17.2236 38.3824 18.4075 37.8558 19.5317C37.4671 20.3689 36.9279 21.1104 36.2132 21.828C36.0752 21.9715 36 22.1509 36 22.3303C36 22.5097 36.0752 22.6651 36.2257 22.8086C36.3636 22.9282 36.5517 23 36.7273 23C36.9279 23 37.1035 22.9163 37.2414 22.7608L37.2539 22.7489C38.6207 21.4333 39.4859 19.8666 39.8244 18.0727C39.8621 17.9172 39.8746 17.7617 39.8997 17.6063C39.9122 17.5225 39.9248 17.4388 39.9373 17.3671V17.3551C39.9624 17.2594 39.9749 17.1518 39.9875 17.0561L40 15.896Z" fill="#3B435A"/>
  <path d="M36.0539 13.6353C35.6764 13.1207 35.1887 12.6404 34.5751 12.2058C34.4178 12.0801 34.1661 12 33.9144 12C33.6784 12 33.4582 12.0572 33.2851 12.1715C32.939 12.4117 32.9076 12.8005 33.2222 13.0864C33.3009 13.155 33.3795 13.2351 33.4739 13.3037L33.5054 13.3266C35.2359 14.6645 35.6921 16.7802 34.6066 18.4727C34.3077 18.953 33.8672 19.4104 33.2537 19.8793C33.0649 20.0165 32.9862 20.1881 33.002 20.3596V20.371C33.002 20.5426 33.1121 20.7141 33.3009 20.8285C33.4739 20.9428 33.6784 21 33.8987 21C34.1347 21 34.3864 20.9199 34.5751 20.7942C36.1326 19.6277 36.9664 18.2097 36.9979 16.7116C37.0293 15.5337 36.7147 14.5502 36.0539 13.6353Z" fill="#3B435A"/>
</svg>