<svg width="59" height="42" viewBox="0 0 59 42" fill="none" xmlns="http://www.w3.org/2000/svg">
    <path d="M49.8784 24H47.0946V28.1132H43V30.9004H47.0946V35H49.8784V30.9004H54V28.1132H49.8784V24Z" fill="#277ACA"/>
    <path d="M48.4933 19C42.7868 19 38 23.6815 38 29.4866C38 35.1075 42.8351 40 48.4933 40C54.2827 40 59 35.2797 59 29.4866C59 23.7789 54.1971 19 48.4933 19ZM48.4933 38.4176C43.7027 38.4176 39.5948 34.2697 39.5948 29.5134C39.5948 24.599 43.6541 20.6226 48.4799 20.6226C53.3247 20.6226 57.3784 24.6845 57.3784 29.5268C57.3918 34.4215 53.3982 38.4176 48.4933 38.4176Z" fill="#277ACA"/>
    <path d="M36.0933 32.6565H12.1287C10.2469 32.6565 8.71404 31.5022 8.3028 29.7952C6.71754 22.6541 7.5 11 8.45234 4.01895C7.80155 3.92734 7.42353 4.41463 7.2809 4.97681C5.15399 12.6223 3.18215 20.3108 1 27.9409C1 29.9379 1.83978 31.6404 4.01583 32.2144C13.7026 34.7504 23.3813 37.3175 33.065 39.8651C35.7421 40.5643 37.3485 38.6336 38 36.3406C37.1611 35.2674 36.4312 33.9884 36.0933 32.6565Z" fill="#C4D9EE"/>
    <path d="M49.9186 3.2804C49.9186 1 47.8846 0 45.4437 0C34.2911 0 13.2236 0.0653467 11 0.0653467C8.77641 0.0653467 7.04715 2.13058 7 4.1299C7 12.1876 7 23 7.14916 29.9549C7.59666 31.7715 9.26459 33 11.3122 33C13.8265 33 36.1922 33.045 36.1922 32.9477C36.0294 32.4119 35.9074 31.863 35.8125 31.301H11.4207C10.1595 31.301 9.15644 30.6526 8.78997 29.4844C8.74929 29.3667 8.77641 4.2998 8.77641 4.2998C8.77641 2.56159 9.69852 1.68594 11.5156 1.68594H45.4573C47.2879 1.68594 48.2236 2 48.2236 5V17.343C48.4164 17.3275 50.0508 17.2837 50 17.2776C50 13.1845 49.9186 9 49.9186 3.2804Z" fill="#3B435A"/>
    <path d="M36.7732 9.09621C35.6387 9.87829 34.5327 10.7017 33.408 11.4979L33.2972 10.7156C33.075 9.14292 31.7697 8.02576 30.1812 8.02576C26.5031 7.97216 22.822 7.984 19.1437 8.01204C17.3572 8.02576 16 9.38441 16 11.1822V19.8144C16 21.6122 17.3572 22.9709 19.1437 22.9846C22.8178 23.0128 26.4932 23.0114 30.1673 22.9846C31.7354 22.9846 33.1067 21.868 33.2972 20.2947L33.3941 19.4988C34.5439 20.3127 35.6996 21.1179 36.8425 21.9416C38.0928 22.8947 40 21.8727 40 20.2947V10.6882C39.9425 9.03683 38.0874 8.13154 36.7732 9.09621ZM30.0704 21.1593H30.0427C26.4501 21.0819 22.8381 21.1731 19.2545 21.1731C18.4203 21.1731 17.7726 20.5415 17.7726 19.7046C17.7933 16.8593 17.7865 14.0139 17.7865 11.1685C17.7865 10.4686 18.1743 9.9608 18.8113 9.79612C22.5644 9.79612 26.3173 9.76867 30.0704 9.76867C30.9983 9.76867 31.5245 10.3039 31.5245 11.2234V13.8995C31.5245 15.8071 31.5245 17.7696 31.5384 19.7046C31.4991 20.5404 30.9226 21.1593 30.0704 21.1593ZM38.172 20.6653C36.6631 19.5439 35 18.5 33.3387 17.2069C33.3387 16.0403 33.311 14.874 33.311 13.7074C35 12.5 36.5 11.5 38.172 10.249V20.6653Z" fill="#3B435A"/>
</svg>