<svg width="48" height="37" viewBox="0 0 48 37" fill="none" xmlns="http://www.w3.org/2000/svg">
<path d="M28.9979 26.0931C28.9745 26.034 28.9589 25.9823 28.9434 25.9232H13.9586C12.782 25.9232 11.8235 25.2287 11.5663 24.2017C11.5118 23.9653 11.4884 23.7658 11.4884 23.5959C11.4806 18.934 11.4806 14.1908 11.4806 9.60278C11.4806 9.2777 11.543 8.9674 11.6598 8.69404C11.6053 8.68665 11.5508 8.67927 11.4962 8.68665C11.4339 8.69404 11.3715 8.70882 11.317 8.73098C11.1689 8.79748 11.0442 8.92307 10.9819 9.093C10.9585 9.15211 10.9429 9.21121 10.9274 9.27032C10.3741 11.1838 8.26237 18.7197 7.7169 20.6406C7.48313 21.4533 7.24156 22.2734 7 23.0861V23.7732C7.01558 23.8028 7.03896 23.8323 7.04675 23.8619C7.27273 24.8223 7.89612 25.406 8.88576 25.6572C11.4962 26.3147 14.0989 26.9797 16.7093 27.6372C20.1535 28.5164 23.6056 29.3882 27.0498 30.26C28.3433 30.5851 29.5823 29.9201 29.9642 28.7085C30.0265 28.5164 30.081 28.3243 30.1356 28.1396C29.6914 27.5929 29.333 26.9723 29.0758 26.3147C29.0447 26.2409 29.0213 26.167 28.9979 26.0931Z" fill="#C4D9EE"/>
<path d="M36.6528 8.41676L36.6367 8.40099L36.6126 8.32217C36.2264 6.95068 35.4059 6.34375 33.9579 6.34375H13.8391C13.6219 6.34375 13.3645 6.34375 13.1473 6.38316C12.2785 6.55657 11.627 7.10044 11.3374 7.86501C11.2247 8.15665 11.1604 8.4877 11.1523 8.83451C11.1523 13.7293 11.1523 18.7897 11.1604 23.7633C11.1604 23.9446 11.1845 24.1574 11.2408 24.4096C11.5063 25.5053 12.4957 26.2462 13.7104 26.2462H29.1716C29.1716 26.2383 29.1635 26.2225 29.1635 26.2147C29.067 25.8915 28.9946 25.5604 28.9383 25.2215H13.7748C13.2358 25.2215 12.8577 25.0717 12.5681 24.7486L12.5118 24.6855L12.3992 24.5594C12.3992 24.5594 12.3188 24.4648 12.2142 24.1259C12.1901 24.055 12.2061 8.93698 12.2061 8.93698C12.2061 7.88865 12.7532 7.36055 13.8311 7.36055H33.966C35.052 7.36055 35.607 7.89653 35.607 10.939V16.8034C35.8001 16.7876 36.0012 16.7718 36.2023 16.764C36.2586 16.764 36.3149 16.7561 36.3712 16.7561C36.3873 16.7561 36.4114 16.7561 36.4275 16.7561C36.4999 16.7561 36.5804 16.7561 36.6528 16.764H36.6608C36.6608 13.8949 36.6528 10.6947 36.6528 8.41676Z" fill="#3B435A"/>
<path d="M36.5892 20.3906H35.7715H35.6112H35.4508H34.9378V22.7983H34.3766H34.2083H34.056H32.5088V23.9071V24.0655V24.2239V24.4299H34.8496H34.9378V24.5566V24.8021V26.8296H36.5892V24.4299H39.0342V22.7983H36.5892V20.3906Z" fill="#277ACA"/>
<path d="M35.9656 17.4727C35.9099 17.4727 35.8622 17.4727 35.8066 17.4648C35.7907 17.4648 35.7827 17.4648 35.7668 17.4648C35.7271 17.4648 35.6873 17.4648 35.6476 17.4648C35.2898 17.4727 34.948 17.5041 34.6061 17.5669C34.5584 17.5747 34.5028 17.5826 34.4551 17.5983C34.4074 17.6061 34.3517 17.6218 34.304 17.6297C34.0814 17.6846 33.8588 17.7474 33.6442 17.8259C33.5885 17.8416 33.5408 17.8652 33.4852 17.8887C33.4295 17.9123 33.3818 17.928 33.3262 17.9515C32.9923 18.0928 32.6743 18.2655 32.3722 18.4539C32.3245 18.4853 32.2847 18.5089 32.245 18.5403C32.2052 18.5717 32.1575 18.6031 32.1178 18.6266C30.5596 19.7491 29.542 21.5624 29.542 23.6033C29.542 23.6504 29.542 23.6975 29.542 23.7446C29.542 23.7996 29.542 23.8467 29.5499 23.9016C29.5499 23.9566 29.5579 24.0037 29.5579 24.0586C29.5658 24.1214 29.5658 24.1842 29.5738 24.247C29.6056 24.5296 29.6533 24.8122 29.7248 25.0791C29.7407 25.1262 29.7487 25.1811 29.7646 25.2282C29.7805 25.2832 29.7964 25.3381 29.8123 25.3931C29.852 25.5108 29.8918 25.6364 29.9315 25.7542C30.814 28.0934 33.0956 29.7575 35.7668 29.7575C39.2012 29.7575 41.9996 26.9944 41.9996 23.6033C41.9996 20.2907 39.3125 17.5747 35.9656 17.4727ZM35.7668 28.8313C33.4931 28.8313 31.5533 27.4026 30.814 25.4088C30.7901 25.3538 30.7742 25.2989 30.7583 25.2439C30.7424 25.1968 30.7265 25.1419 30.7106 25.0948C30.6152 24.7651 30.5437 24.4276 30.5119 24.0743C30.5039 24.0194 30.5039 23.9723 30.496 23.9173C30.496 23.8624 30.488 23.8153 30.488 23.7603C30.488 23.7132 30.488 23.6661 30.488 23.619C30.488 21.8607 31.3784 20.2986 32.7379 19.3566C32.7776 19.3252 32.8253 19.2938 32.8651 19.2703C32.9128 19.2389 32.9525 19.2153 33.0002 19.1839C33.3103 18.9955 33.6442 18.8385 33.986 18.713C34.0417 18.6973 34.0973 18.6737 34.145 18.658C34.2484 18.6266 34.3438 18.5952 34.4471 18.5717C34.4948 18.556 34.5505 18.5481 34.5982 18.5403C34.9321 18.4618 35.2819 18.4225 35.6396 18.4147C35.6794 18.4147 35.7191 18.4147 35.7589 18.4147C35.7748 18.4147 35.7827 18.4147 35.7986 18.4147C35.8543 18.4147 35.902 18.4147 35.9576 18.4225C38.7799 18.5246 41.0377 20.8167 41.0377 23.6269C41.0456 26.492 38.6765 28.8313 35.7668 28.8313Z" fill="#277ACA"/>
<path d="M30.0631 11.5575C29.8905 11.4692 29.7098 11.429 29.5208 11.429C29.2662 11.429 29.0361 11.5093 28.8143 11.67C28.6254 11.7985 28.4364 11.9351 28.2474 12.0717C27.9106 12.3127 27.5574 12.5617 27.2041 12.8027L26.8755 13.0357L26.818 13.0759L26.8098 13.0116L26.7522 12.618C26.6947 12.2163 26.5222 11.8548 26.2429 11.5736C25.9061 11.2282 25.4296 11.0434 24.9038 11.0434C23.7865 11.0273 22.6774 11.0273 21.6094 11.0273C20.5332 11.0273 19.4241 11.0273 18.3561 11.0354C17.2963 11.0434 16.4912 11.8387 16.4912 12.8911V17.9441C16.4912 18.9965 17.2963 19.7918 18.3561 19.7998C19.4159 19.8078 20.525 19.8078 21.6012 19.8078C22.6692 19.8078 23.7783 19.8078 24.8956 19.7998C25.4131 19.7998 25.8978 19.607 26.2511 19.2616C26.5304 18.9804 26.703 18.6269 26.7522 18.2253L26.8015 17.8236L26.8098 17.7593L26.8673 17.7995L27.2041 18.0325C27.4095 18.169 27.6149 18.3217 27.8202 18.4663C27.9846 18.5787 28.1406 18.6912 28.305 18.8037C28.3953 18.8679 28.4857 18.9322 28.5761 18.9965C28.6664 19.0607 28.765 19.125 28.8554 19.1893C28.9622 19.2696 29.0526 19.3178 29.1676 19.3499C29.3072 19.3901 29.4305 19.4062 29.5455 19.4062C30.1945 19.4062 30.7285 18.876 30.7285 18.2253V14.3933V12.6019C30.7121 12.136 30.482 11.7664 30.0631 11.5575ZM25.4542 18.4984C25.3063 18.651 25.0927 18.7314 24.8381 18.7314H24.8216C24.4437 18.7233 24.0329 18.7233 23.5072 18.7233H22.5542H21.6094H20.6728H19.7281C19.2598 18.7233 18.8901 18.7233 18.5451 18.7314L18.5368 18.7394H18.5204H18.4218C18.1754 18.7394 17.97 18.6591 17.7892 18.4984C17.6332 18.3458 17.5428 18.1289 17.5428 17.8798C17.551 16.7632 17.551 15.6305 17.551 14.5299V12.8831C17.551 12.4734 17.781 12.1761 18.1589 12.0797H18.1672H18.1754H18.1836H18.1918C18.2 12.0797 18.2247 12.0797 18.2493 12.0717C18.2986 12.0637 18.3643 12.0637 18.43 12.0637H22.2995H24.8381C25.3885 12.0637 25.7007 12.377 25.7007 12.9152V14.4817C25.7007 15.5983 25.7007 16.7471 25.7089 17.8798C25.6925 18.2253 25.5446 18.4181 25.4542 18.4984ZM29.6441 12.4252V12.8991V14.1684V14.7147V15.1967V15.3895V15.9598V17.8959V18.3618V18.4422L29.5783 18.394L29.1922 18.1208L28.8718 17.8959C28.1653 17.3978 27.5163 16.9399 26.8919 16.4981L26.7933 16.4258L26.7769 16.4177V16.4017V16.2731V15.3332C26.7687 15.1967 26.7687 15.0681 26.7687 14.9235C26.7687 14.787 26.7687 14.6504 26.7605 14.5138V14.3933V14.3692L26.7769 14.3612L26.8837 14.2889L27.278 14.0077C27.6559 13.7426 28.0503 13.4615 28.4364 13.1964C28.6829 13.0196 28.9375 12.8429 29.184 12.6662L29.5783 12.393L29.6441 12.3448V12.4252Z" fill="#3B435A"/>
</svg>
