<svg xmlns="http://www.w3.org/2000/svg" width="60" height="42" viewBox="0 0 60 42" fill="none">
    <path d="M37.5822 33.9912C37.5428 33.8902 37.5165 33.8019 37.4902 33.7009H12.2302C10.2467 33.7009 8.63102 32.5145 8.19754 30.7601C8.10559 30.3563 8.06618 30.0155 8.06618 29.7252C8.05305 21.7611 8.05305 13.6582 8.05305 5.82028C8.05305 5.26494 8.15813 4.73484 8.35517 4.26785C8.26322 4.25523 8.17127 4.24261 8.07932 4.25523C7.97423 4.26785 7.86915 4.29309 7.7772 4.33096C7.52762 4.44455 7.31745 4.65911 7.21236 4.9494C7.17295 5.05038 7.14668 5.15135 7.12041 5.25232C6.18777 8.52126 2.62799 21.3951 1.70849 24.6766C1.31442 26.065 0.907208 27.466 0.5 28.8543V30.0281C0.526271 30.0786 0.565679 30.1291 0.578814 30.1796C0.959751 31.8203 2.01061 32.8174 3.67885 33.2466C8.07932 34.3699 12.4667 35.5058 16.8671 36.6291C22.6731 38.131 28.4923 39.6204 34.2982 41.1097C36.4788 41.665 38.5674 40.5291 39.211 38.4592C39.3161 38.131 39.408 37.8029 39.5 37.4873C38.7513 36.5534 38.147 35.4932 37.7135 34.3699C37.661 34.2436 37.6216 34.1174 37.5822 33.9912Z" fill="#C4D9EE"/>
    <path d="M50.4864 3.79139L50.4593 3.76446L50.4186 3.6298C49.7677 1.28683 48.3846 0.25 45.9437 0.25H12.0292C11.663 0.25 11.2291 0.25 10.863 0.317327C9.39846 0.613564 8.30006 1.54267 7.81189 2.84881C7.62204 3.34703 7.51356 3.91257 7.5 4.50505C7.5 12.867 7.5 21.5118 7.51356 30.0084C7.51356 30.3181 7.55424 30.6817 7.64916 31.1126C8.09666 32.9843 9.76459 34.25 11.8122 34.25H37.8753C37.8753 34.2365 37.8617 34.2096 37.8617 34.1961C37.699 33.6441 37.5769 33.0785 37.482 32.4995H11.9207C11.0121 32.4995 10.3748 32.2437 9.88663 31.6916L9.79171 31.5839L9.60186 31.3684C9.60186 31.3684 9.46626 31.2068 9.28997 30.6278C9.24929 30.5066 9.27641 4.6801 9.27641 4.6801C9.27641 2.88921 10.1985 1.98703 12.0156 1.98703H45.9573C47.7879 1.98703 48.7236 2.90267 48.7236 8.1003V18.1185C49.049 18.0916 49.388 18.0647 49.7271 18.0512C49.822 18.0512 49.9169 18.0377 50.0118 18.0377C50.0389 18.0377 50.0796 18.0377 50.1067 18.0377C50.2288 18.0377 50.3644 18.0377 50.4864 18.0512H50.5C50.5 13.1498 50.4864 7.68287 50.4864 3.79139Z" fill="#3B435A"/>
    <path d="M50.3784 24.25H49H48.7297H48.4595H47.5946V28.3632H46.6487H46.3649H46.1081H43.5V30.2574V30.528V30.7986V31.1504H47.4459H47.5946V31.3669V31.7863V35.25H50.3784V31.1504H54.5V28.3632H50.3784V24.25Z" fill="#277ACA"/>
    <path d="M49.3283 19.2634C49.2345 19.2634 49.1541 19.2634 49.0603 19.25C49.0335 19.25 49.0201 19.25 48.9933 19.25C48.9263 19.25 48.8593 19.25 48.7923 19.25C48.1892 19.2634 47.613 19.3171 47.0367 19.4243C46.9563 19.4377 46.8625 19.4511 46.7821 19.478C46.7017 19.4914 46.6078 19.5182 46.5274 19.5316C46.1522 19.6255 45.777 19.7328 45.4151 19.8669C45.3213 19.8937 45.2409 19.9339 45.1471 19.9741C45.0533 20.0144 44.9729 20.0412 44.8791 20.0814C44.3162 20.3228 43.7802 20.6178 43.2709 20.9397C43.1905 20.9933 43.1235 21.0335 43.0565 21.0872C42.9895 21.1408 42.9091 21.1944 42.8421 21.2347C40.2154 23.1523 38.5 26.25 38.5 29.7366C38.5 29.8171 38.5 29.8975 38.5 29.978C38.5 30.0718 38.5 30.1523 38.5134 30.2462C38.5134 30.34 38.5268 30.4205 38.5268 30.5144C38.5402 30.6216 38.5402 30.7289 38.5536 30.8362C38.6072 31.319 38.6876 31.8017 38.8082 32.2577C38.835 32.3381 38.8484 32.432 38.8752 32.5125C38.902 32.6063 38.9288 32.7002 38.9556 32.7941C39.0227 32.9952 39.0897 33.2098 39.1567 33.4109C40.6442 37.4071 44.4904 40.25 48.9933 40.25C54.7827 40.25 59.5 35.5297 59.5 29.7366C59.5 24.0776 54.9703 19.4377 49.3283 19.2634ZM48.9933 38.6676C45.1605 38.6676 41.8906 36.227 40.6442 32.8209C40.604 32.727 40.5772 32.6331 40.5504 32.5393C40.5236 32.4588 40.4968 32.3649 40.47 32.2845C40.3092 31.7213 40.1886 31.1446 40.135 30.5412C40.1216 30.4473 40.1216 30.3669 40.1082 30.273C40.1082 30.1791 40.0948 30.0987 40.0948 30.0048C40.0948 29.9243 40.0948 29.8439 40.0948 29.7634C40.0948 26.7596 41.5957 24.091 43.8874 22.4818C43.9544 22.4282 44.0348 22.3745 44.1018 22.3343C44.1822 22.2807 44.2492 22.2404 44.3296 22.1868C44.8523 21.8649 45.4151 21.5967 45.9914 21.3822C46.0852 21.3554 46.179 21.3151 46.2594 21.2883C46.4336 21.2347 46.5944 21.181 46.7687 21.1408C46.8491 21.114 46.9429 21.1006 47.0233 21.0872C47.5861 20.9531 48.1758 20.886 48.7789 20.8726C48.8459 20.8726 48.9129 20.8726 48.9799 20.8726C49.0067 20.8726 49.0201 20.8726 49.0469 20.8726C49.1407 20.8726 49.2211 20.8726 49.3149 20.886C54.0724 21.0603 57.8784 24.9761 57.8784 29.7768C57.8918 34.6715 53.8982 38.6676 48.9933 38.6676Z" fill="#277ACA"/>
    <path d="M39.3782 9.15576C39.0874 9.0048 38.7827 8.93618 38.4642 8.93618C38.0349 8.93618 37.6471 9.07342 37.2732 9.3479C36.9547 9.56747 36.6362 9.80078 36.3177 10.0341C35.7499 10.4458 35.1544 10.8712 34.5589 11.2829L34.0049 11.6809L33.908 11.7495L33.8941 11.6398L33.7972 10.9673C33.7002 10.2811 33.4094 9.66354 32.9385 9.18321C32.3707 8.59309 31.5675 8.27745 30.6812 8.27745C28.7977 8.25 26.9282 8.25 25.1278 8.25C23.3136 8.25 21.444 8.25 19.6437 8.26372C17.8572 8.27745 16.5 9.63609 16.5 11.4339V20.0661C16.5 21.8639 17.8572 23.2226 19.6437 23.2363C21.4302 23.25 23.2998 23.25 25.114 23.25C26.9143 23.25 28.7839 23.25 30.6673 23.2363C31.5398 23.2363 32.3569 22.9069 32.9524 22.3168C33.4233 21.8365 33.7141 21.2326 33.7972 20.5464L33.8803 19.8602L33.8941 19.7505L33.9911 19.8191L34.5589 20.2171C34.9051 20.4504 35.2513 20.7111 35.5975 20.9581C35.8745 21.1503 36.1376 21.3424 36.4146 21.5345C36.5669 21.6443 36.7193 21.7541 36.8716 21.8639C37.0239 21.9737 37.1901 22.0835 37.3425 22.1933C37.5225 22.3305 37.6748 22.4129 37.8687 22.4677C38.1042 22.5364 38.3119 22.5638 38.5058 22.5638C39.5998 22.5638 40.5 21.6581 40.5 20.5464V14.0002V10.9398C40.4723 10.1439 40.0845 9.51258 39.3782 9.15576ZM31.6091 21.013C31.3598 21.2738 30.9997 21.411 30.5704 21.411H30.5427C29.9057 21.3973 29.2132 21.3973 28.3269 21.3973H26.7204H25.1278H23.549H21.9564C21.1671 21.3973 20.5439 21.3973 19.9622 21.411L19.9484 21.4247H19.9207H19.7545C19.339 21.4247 18.9928 21.2875 18.6881 21.013C18.425 20.7523 18.2726 20.3817 18.2726 19.9563C18.2865 18.0487 18.2865 16.1137 18.2865 14.2335V11.4202C18.2865 10.7203 18.6743 10.2125 19.3113 10.0478H19.3252H19.339H19.3529H19.3667C19.3806 10.0478 19.4221 10.0478 19.4636 10.0341C19.5467 10.0204 19.6575 10.0204 19.7683 10.0204H26.2911H30.5704C31.4983 10.0204 32.0245 10.5556 32.0245 11.4751V14.1512C32.0245 16.0588 32.0245 18.0213 32.0384 19.9563C32.0107 20.5464 31.7614 20.8758 31.6091 21.013ZM38.672 10.6379V11.4476V13.616V14.5492V15.3726V15.702V16.6764V19.9838V20.7797V20.917L38.5612 20.8346L37.9103 20.368L37.3702 19.9838C36.1792 19.1329 35.0851 18.3506 34.0326 17.5958L33.8664 17.4723L33.8387 17.4586V17.4312V17.2116V15.6059C33.8249 15.3726 33.8249 15.153 33.8249 14.906C33.8249 14.6727 33.8249 14.4394 33.811 14.2061V14.0002V13.9591L33.8387 13.9453L34.0188 13.8218L34.6835 13.3415C35.3205 12.8886 35.9853 12.4083 36.6362 11.9554C37.0516 11.6535 37.481 11.3516 37.8964 11.0496L38.5612 10.583L38.672 10.5007V10.6379Z" fill="#3B435A"/>
</svg>