<svg width="59" height="42" viewBox="0 0 59 42" fill="none" xmlns="http://www.w3.org/2000/svg">
    <path d="M49.8784 24H47.0946V28.1132H43V30.9004H47.0946V35H49.8784V30.9004H54V28.1132H49.8784V24Z" fill="#277ACA"/>
    <path d="M48.4933 19C42.7868 19 38 23.6815 38 29.4866C38 35.1075 42.8351 40 48.4933 40C54.2827 40 59 35.2797 59 29.4866C59 23.7789 54.1971 19 48.4933 19ZM48.4933 38.4176C43.7027 38.4176 39.5948 34.2697 39.5948 29.5134C39.5948 24.599 43.6541 20.6226 48.4799 20.6226C53.3247 20.6226 57.3784 24.6845 57.3784 29.5268C57.3918 34.4215 53.3982 38.4176 48.4933 38.4176Z" fill="#277ACA"/>
    <path d="M36.0933 32.6565H12.1287C10.2469 32.6565 8.71404 31.5022 8.3028 29.7952C6.71754 22.6541 7.5 11 8.45234 4.01895C7.80155 3.92734 7.42353 4.41463 7.2809 4.97681C5.15399 12.6223 3.18215 20.3108 1 27.9409C1 29.9379 1.83978 31.6404 4.01583 32.2144C13.7026 34.7504 23.3813 37.3175 33.065 39.8651C35.7421 40.5643 37.3485 38.6336 38 36.3406C37.1611 35.2674 36.4312 33.9884 36.0933 32.6565Z" fill="#C4D9EE"/>
    <path d="M49.9186 3.2804C49.9186 1 47.8846 0 45.4437 0C34.2911 0 13.2236 0.0653467 11 0.0653467C8.77641 0.0653467 7.04715 2.13058 7 4.1299C7 12.1876 7 23 7.14916 29.9549C7.59666 31.7715 9.26459 33 11.3122 33C13.8265 33 36.1922 33.045 36.1922 32.9477C36.0294 32.4119 35.9074 31.863 35.8125 31.301H11.4207C10.1595 31.301 9.15644 30.6526 8.78997 29.4844C8.74929 29.3667 8.77641 4.2998 8.77641 4.2998C8.77641 2.56159 9.69852 1.68594 11.5156 1.68594H45.4573C47.2879 1.68594 48.2236 2 48.2236 5V17.343C48.4164 17.3275 50.0508 17.2837 50 17.2776C50 13.1845 49.9186 9 49.9186 3.2804Z" fill="#3B435A"/>
    <path d="M29.2362 5.30783C27.135 6.85359 24.5123 8.74749 21.6595 10.8085C21.5906 10.8711 21.4561 10.906 21.3681 10.906H17.9172C16.7515 10.9199 16 11.6023 16 12.6606V18.3284C16 19.4285 16.7515 20.1109 17.9632 20.1109H21.3834C21.4601 20.1109 21.5521 20.1387 21.6288 20.1944C24.1853 22.0224 26.7215 23.8796 29.2669 25.723C29.9623 26.2429 31 25.9991 31 24.971C31 18.9127 30.9847 12.0015 30.9847 5.82308C30.9085 4.88961 29.8051 4.85202 29.2362 5.30783ZM20.8926 18.2448H18.0706V12.7581H20.8926V18.2448ZM29.0061 23.1606C26.9701 21.7081 24.9273 20.2555 22.9325 18.7462C22.9325 16.5877 22.9325 14.4292 22.9325 12.2707C24.9299 10.7594 26.998 9.33999 29.0061 7.84231V23.1606Z" fill="#3B435A"/>
    <path d="M38.4702 11.6155C38.1118 11.117 37.6841 10.6763 37.2665 10.2282C36.6516 9.52448 35.5478 10.5504 36.3009 11.2687C36.8652 11.8547 37.3041 12.4407 37.6552 13.0865C38.7418 15.0531 38.8072 17.5017 37.8558 19.5327C37.4671 20.3699 36.9279 21.1114 36.2132 21.8289C35.5848 22.4827 36.6227 23.4591 37.2414 22.7618L37.2539 22.7498C40.3079 19.8103 40.935 15.1081 38.4702 11.6155Z" fill="#3B435A"/>
    <path d="M36.0539 13.6353C35.6764 13.1207 35.1887 12.6404 34.5751 12.2058C34.4178 12.0801 34.1661 12 33.9144 12C33.6784 12 33.4582 12.0572 33.2851 12.1715C32.939 12.4117 32.9076 12.8005 33.2222 13.0864C35 14.5 35.9108 16.4392 34.6066 18.4727C34.3077 18.953 33.8672 19.4104 33.2537 19.8793C32.5958 20.3575 33.3257 21 33.8987 21C34.1346 21 34.3863 20.9199 34.5751 20.7942C36.1326 19.6277 36.9664 18.2097 36.9978 16.7116C37.0293 15.5337 36.7147 14.5502 36.0539 13.6353Z" fill="#3B435A"/>
</svg>