<?xml version="1.0" encoding="utf-8"?>
<!-- Generator: Adobe Illustrator 20.1.0, SVG Export Plug-In . SVG Version: 6.00 Build 0)  -->
<svg version="1.1" id="Layer_1" xmlns="http://www.w3.org/2000/svg" xmlns:xlink="http://www.w3.org/1999/xlink" x="0px" y="0px"
	 viewBox="0 0 24 24" style="enable-background:new 0 0 24 24;" xml:space="preserve">
<style type="text/css">
	.st0{clip-path:url(#SVGID_2_);}
</style>
<title>video-upload-icon</title>
<g>
	<g>
		<g>
			<defs>
				<rect id="SVGID_1_" y="0" width="24" height="24"/>
			</defs>
			<clipPath id="SVGID_2_">
				<use xlink:href="#SVGID_1_"  style="overflow:visible;"/>
			</clipPath>
			<g class="st0">
				<path d="M18.4,8.8L16,6.3c-0.3-0.3-0.9-0.5-1.3-0.5h-3.3l0.5,1H14V10c0,0.4,0.3,0.7,0.7,0.7H18v8H8V11H7v8
					c0,0.4,0.3,0.7,0.7,0.7h10.5c0.4,0,0.7-0.3,0.7-0.7v-9C19,9.6,18.7,9.1,18.4,8.8z M15,9.8V6.9c0.1,0,0.3,0.1,0.3,0.2l2.4,2.4
					c0.1,0.1,0.1,0.2,0.2,0.3H15z"/>
				<path d="M8.2,9.4V6.2l1.4,1.4c0.2,0.2,0.4,0.1,0.6,0l0.3-0.3c0.2-0.2,0.2-0.4,0-0.6L7.8,4.2C7.6,4,7.4,4,7.3,4.2L4.6,6.8
					C4.5,7,4.5,7.2,4.6,7.4l0.3,0.3c0.2,0.2,0.4,0.2,0.5,0l1.4-1.4v3.2c0,0.2,0.2,0.4,0.4,0.4h0.6C7.8,9.9,8.2,9.7,8.2,9.4z"/>
				<path d="M12.6,12.8v3.6c0,0.1-0.1,0.2-0.1,0.2c0,0-0.1,0-0.1,0c-0.1,0-0.1,0-0.2-0.1l-1.1-1.1h-0.9c-0.1,0-0.2-0.1-0.2-0.2V14
					c0-0.1,0.1-0.2,0.2-0.2h0.9l1.1-1.1c0.1-0.1,0.2-0.1,0.2,0C12.5,12.7,12.6,12.7,12.6,12.8z"/>
				<path d="M14.2,16.1c0.4-0.4,0.6-0.9,0.6-1.5s-0.2-1.1-0.6-1.5c-0.2-0.2-0.4-0.2-0.6,0c-0.2,0.2-0.2,0.4,0,0.6
					c0.2,0.2,0.3,0.5,0.3,0.9s-0.1,0.6-0.3,0.9c-0.2,0.2-0.2,0.4,0,0.6c0.1,0.1,0.2,0.1,0.3,0.1C14,16.2,14.1,16.2,14.2,16.1z"/>
				<path d="M15.6,17.1c0.6-0.7,0.9-1.5,0.9-2.4s-0.3-1.7-0.9-2.4C15.4,12,15.2,12,15,12.1c-0.2,0.2-0.2,0.4-0.1,0.6
					c0.4,0.5,0.7,1.2,0.7,1.9s-0.2,1.4-0.7,1.9c-0.2,0.2-0.1,0.5,0.1,0.6c0.1,0.1,0.2,0.1,0.3,0.1C15.4,17.2,15.5,17.2,15.6,17.1z"
					/>
			</g>
		</g>
	</g>
</g>
</svg>
