<?xml version="1.0" encoding="utf-8"?>
<!-- Generator: Adobe Illustrator 20.1.0, SVG Export Plug-In . SVG Version: 6.00 Build 0)  -->
<svg version="1.1" id="Layer_1" xmlns="http://www.w3.org/2000/svg" xmlns:xlink="http://www.w3.org/1999/xlink" x="0px" y="0px"
	 viewBox="0 0 1407.8 1478.1" style="enable-background:new 0 0 1407.8 1478.1;" xml:space="preserve">
<style type="text/css">
	.st0{fill:none;}
	.st1{fill:#418FCD;}
	.st2{fill:#464646;}
	.st3{fill:#FFFFFF;}
</style>
<path class="st0" d="M651.3,777.4c-0.8,1.5-1.6,2.9-2.3,4.1c-3.7,6.1-7.5,12.1-11.2,18.1c-7.4,11.9-15,24.3-22.4,36.6
	c-16.3,27.2-31.1,46.6-54.8,59.6c-31.3,17.2-69.8,20-102.8,7.4c-27.1-10.3-49.2-34.1-60.7-65.3c-12.2-33.2-10.4-69.6,4.8-97.3
	c15.9-29,34.4-57.6,52.3-85.3c3.4-5.3,6.8-10.5,10.2-15.8c14.5-22.6,29.2-37.6,47.6-48.8c35.3-21.4,80.1-23.6,117-5.8l0.2-0.4
	c7.3,4,14,8.9,20.4,15.2c17.6-1.8,34.8-7.6,49.8-17.5c10.8-7.1,20-15.6,28.8-26.8c-4.7-6-11.1-12.8-19.2-20.8
	c-1.1-1.1-2.1-2.1-2.8-2.8c-19.8-20.3-47.4-34.6-79.8-41.4c-29.3-6.1-61-5.7-89.3,1.2c-54.9,13.4-99,48.2-131,103.4
	c-8,13.8-17,27.5-25.7,40.8c-6.8,10.3-13.8,21-20.3,31.8c-13.9,22.7-28.2,47.1-38,73.3c-22.7,60.6-12.9,130.9,25.6,183.5
	c33.9,46.4,86.5,72.4,145.4,72.4c3.4,0,6.9-0.1,10.3-0.3c31.7-1.6,62.9-10.8,90.2-26.7c28.7-16.6,52.6-40.3,69.1-68.5
	c13.5-23.1,28.1-47.4,47.2-78.8c3.8-6.2,7.8-12.5,11.7-18.6c11.1-17.4,22.5-35.3,30.9-54.6c-15.3,7.7-31.5,13.9-48.5,18.7
	C687.1,773,669.3,776,651.3,777.4z"/>
<path class="st0" d="M576,432.3l18.8-33c2.6-4.6,5.2-9.3,7.7-13.9c7.3-13.5,14.9-27.5,24.2-38.6c23-27.6,58.4-44.1,94.6-44.1
	c0,0,0.1,0,0.1,0c34.6,0,63.5,13.3,83.6,38.3c25,31.1,34,72,24.1,109.3c-7.4,27.8-24.3,54.8-40.6,81c-6,9.7-12.3,19.7-17.8,29.3
	c-14.4,25.3-28.3,47.5-53,62.4c-35.6,21.6-80.8,23.7-117.9,5.4c0,0,0,0,0,0l-0.2,0.3c-8.3-4.6-15.9-10.7-23.3-18.7
	c-13.2,2.4-26.1,7.1-37.8,14.2c-13.7,8.3-25.1,19-36.5,34.3c8.7,12.9,22.2,25.1,30.6,32c24,20,55.4,32.4,90.7,36
	c6.9,0.7,13.9,1.1,20.9,1.1c26,0,52.1-4.8,75.3-14.1c72.2-28.9,109.8-101.9,142.9-166.3c6.9-13.4,13.4-26.1,20.2-38.4
	c29.3-53,36.8-107.7,22.1-158.6c-0.1-0.5-0.2-1.1-0.4-1.6l0,0l-0.2-0.5c0,0,0,0,0,0l-4.1-12.1c0,0,0,0,0,0l-0.2-0.5l0,0
	c-0.2-0.5-0.4-1-0.6-1.4c-18.5-47.9-53.4-85.3-96.8-103.4c-50.4-21-110.2-19-160,5.3c-59.3,28.9-89.1,85.3-117.9,139.8
	c-4.7,8.9-9.6,18.2-14.5,27c-2.8,5.2-5.9,10.4-8.8,15.5c-8,14.1-16.3,28.5-22.9,43.7c19.5-10.3,40.2-18.1,62.3-23.5
	C552.2,435.6,564,433.6,576,432.3z"/>
<path class="st1" d="M898.4,973.5h81.3l126.6-126.6c24.6-24.6,57.2-38.2,91.8-38.2c2.7,0,5.3,0.1,7.9,0.2
	c19.5-60.1,30.1-124.3,30.1-190.9C1236,276.7,959.3,0,618,0C276.7,0,0,276.7,0,618c0,341.3,276.7,618,618,618
	c51.9,0,102.3-6.4,150.4-18.4v-114.1C768.4,1031.8,826.7,973.5,898.4,973.5z"/>
<path class="st2" d="M1228,1448.1c0,16.4-13.6,30-30,30c-8,0-15.5-3.3-21.1-8.9L1021,1313.2H898.4c-16.4,0-30-13.6-30-30v-179.8
	c0-16.4,13.6-30,30-30H1021L1177,917.6c5.6-5.6,13.1-8.9,21.1-8.9c16.4,0,30,13.6,30,30V1448.1z M1335.2,1303.4
	c-3.7,1.9-8,2.3-11.7,2.3c-16.4,0-30-13.1-30-30c0-35.6,54.3-25.8,54.3-82.4s-54.3-46.8-54.3-82.4c0-16.9,13.6-30,30-30
	c3.7,0,8,0.5,11.7,2.3c44,17.3,72.6,63.2,72.6,110S1379.2,1285.6,1335.2,1303.4z"/>
<path class="st3" d="M501.3,418.2c2.9-5.1,5.9-10.4,8.8-15.5c4.9-8.8,9.8-18.1,14.5-27c28.8-54.5,58.6-110.9,117.9-139.8
	c49.8-24.3,109.6-26.3,160-5.3c43.4,18.1,78.3,55.5,96.8,103.4c0.2,0.4,0.4,0.9,0.6,1.4l0,0l0.2,0.5c0,0,0,0,0,0l4.1,12.1
	c0,0,0,0,0,0l0.2,0.5l0,0c0.2,0.6,0.3,1.1,0.4,1.6c14.8,51,7.2,105.6-22.1,158.6c-6.8,12.3-13.3,25-20.2,38.4
	c-33.2,64.4-70.8,137.4-142.9,166.3c-23.2,9.3-49.3,14.1-75.3,14.1c-7,0-14-0.4-20.9-1.1c-35.3-3.6-66.6-16.1-90.7-36
	c-8.3-6.9-21.8-19.1-30.6-32c11.4-15.3,22.7-26,36.5-34.3c11.7-7.1,24.5-11.8,37.8-14.2c7.4,8,15,14,23.3,18.7l0.2-0.3c0,0,0,0,0,0
	c37.1,18.3,82.3,16.2,117.9-5.4c24.7-15,38.6-37.1,53-62.4c5.5-9.7,11.8-19.7,17.8-29.3c16.3-26.2,33.2-53.3,40.6-81
	c9.9-37.3,0.9-78.1-24.1-109.3c-20.1-25-49-38.3-83.6-38.3c0,0-0.1,0-0.1,0c-36.2,0-71.5,16.5-94.6,44.1
	c-9.3,11.1-16.9,25.1-24.2,38.6c-2.5,4.6-5.1,9.4-7.7,13.9l-18.8,33c-12,1.3-23.8,3.3-35.3,6.1c-22.1,5.4-42.9,13.2-62.3,23.5
	C485,446.7,493.3,432.3,501.3,418.2z"/>
<path class="st3" d="M721.5,804.1c-3.9,6.1-7.9,12.4-11.7,18.6c-19.1,31.3-33.6,55.6-47.2,78.8c-16.5,28.2-40.4,51.9-69.1,68.5
	c-27.4,15.8-58.5,25.1-90.2,26.7c-3.5,0.2-6.9,0.3-10.3,0.3c-58.9,0-111.5-26-145.4-72.4c-38.4-52.6-48.2-122.9-25.6-183.5
	c9.8-26.1,24.1-50.5,38-73.3c6.6-10.8,13.6-21.5,20.3-31.8c8.7-13.3,17.7-27,25.7-40.8c32-55.2,76.1-90,131-103.4
	c28.3-6.9,60.1-7.3,89.3-1.2c32.4,6.8,60,21.1,79.8,41.4c0.7,0.7,1.7,1.7,2.8,2.8c8,8,14.5,14.8,19.2,20.8
	c-8.8,11.2-18,19.7-28.8,26.8c-15,9.9-32.2,15.8-49.8,17.5c-6.4-6.3-13.1-11.2-20.4-15.2l-0.2,0.4c-36.9-17.8-81.7-15.6-117,5.8
	c-18.4,11.2-33.1,26.2-47.6,48.8c-3.4,5.3-6.8,10.5-10.2,15.8c-17.9,27.7-36.4,56.3-52.3,85.3c-15.2,27.7-17,64.1-4.8,97.3
	c11.5,31.2,33.6,54.9,60.7,65.3c33.1,12.6,71.5,9.9,102.8-7.4c23.6-13,38.5-32.5,54.8-59.6c7.4-12.3,15-24.6,22.4-36.6
	c3.7-6,7.5-12.1,11.2-18.1c0.7-1.2,1.5-2.5,2.3-4.1c18-1.4,35.8-4.5,52.7-9.2c17-4.8,33.2-11.1,48.5-18.7
	C744,768.8,732.6,786.7,721.5,804.1z"/>
</svg>
