<?xml version="1.0" encoding="utf-8"?>
<svg version="1.1" id="Layer_1" xmlns="http://www.w3.org/2000/svg" xmlns:xlink="http://www.w3.org/1999/xlink" x="0px" y="0px"
	 viewBox="0 0 211.4 211.4" style="enable-background:new 0 0 211.4 211.4;" xml:space="preserve">
<style type="text/css">
	.st0{fill:#39C943;}
</style>
<g>
	<path class="st0" d="M211.4,120.1c0,8-6.5,14.4-14.4,14.4h-62.5V197c0,8-6.5,14.4-14.4,14.4H91.3c-8,0-14.4-6.5-14.4-14.4v-62.5
		H14.4c-8,0-14.4-6.5-14.4-14.4V91.3c0-8,6.5-14.4,14.4-14.4h62.5V14.4c0-8,6.5-14.4,14.4-14.4h28.8c8,0,14.4,6.5,14.4,14.4v62.5
		H197c8,0,14.4,6.5,14.4,14.4V120.1z"/>
</g>
</svg>
