<?xml version="1.0" encoding="utf-8"?>
<!-- Generator: Adobe Illustrator 20.1.0, SVG Export Plug-In . SVG Version: 6.00 Build 0)  -->
<svg version="1.1" id="Layer_1" xmlns="http://www.w3.org/2000/svg" xmlns:xlink="http://www.w3.org/1999/xlink" x="0px" y="0px"
	 viewBox="0 0 1345.7 1426.8" style="enable-background:new 0 0 1345.7 1426.8;" xml:space="preserve">
<style type="text/css">
	.st0{fill:#E01F26;}
	.st1{fill:#464646;}
	.st2{fill:#FFFFFF;}
</style>
<path class="st0" d="M740.9,1018.4c18.6-43.9,45.2-83.4,79-117.2c33.8-33.8,73.3-60.4,117.2-79c45.5-19.3,93.9-29,143.6-29
	c48,0,94.6,9.1,138.8,27c20.1-61.3,31-126.8,31-194.9C1250.5,279.9,970.6,0,625.3,0S0,279.9,0,625.3s279.9,625.3,625.3,625.3
	c32.5,0,64.5-2.5,95.6-7.3c-6-26.5-9-53.7-9-81.3C711.9,1112.2,721.7,1063.9,740.9,1018.4z"/>
<g>
	<path class="st1" d="M1345.7,1162c0,146.2-118.6,264.9-264.9,264.9S815.9,1308.2,815.9,1162s118.6-264.9,264.9-264.9
		S1345.7,1015.7,1345.7,1162z"/>
</g>
<path class="st2" d="M1224.3,1162c0-7.9-4.1-15.2-11-19l-187.6-110.4c-6.6-4.1-15.2-4.1-22.1-0.3c-6.9,4.1-11,11.4-11,19.3v220.7
	c0,7.9,4.1,15.2,11,19.3c3.4,1.7,7.2,2.8,11,2.8s7.6-1,11-3.1l187.6-110.4C1220.1,1177.1,1224.3,1169.9,1224.3,1162z"/>
<path class="st2" d="M719,805.5c-3.9,6.2-8,12.6-11.8,18.8c-19.3,31.7-34,56.3-47.7,79.7c-16.7,28.5-40.8,52.5-69.9,69.3
	c-27.7,16-59.2,25.4-91.3,27c-3.5,0.2-7,0.3-10.5,0.3c-59.6,0-112.8-26.4-147.1-73.3c-38.9-53.2-48.8-124.4-25.9-185.7
	c9.9-26.4,24.4-51.1,38.4-74.1c6.6-10.9,13.7-21.7,20.6-32.2c8.8-13.4,17.9-27.3,26-41.3c32.4-55.9,77-91,132.6-104.6
	c28.7-7,60.8-7.4,90.4-1.2c32.8,6.9,60.7,21.4,80.7,41.9c0.7,0.8,1.7,1.7,2.9,2.9c8.1,8.1,14.6,15,19.4,21
	c-8.9,11.3-18.2,19.9-29.1,27.1c-15.2,10-32.6,15.9-50.4,17.7c-6.5-6.4-13.2-11.4-20.6-15.4l-0.2,0.4c-37.3-18-82.7-15.7-118.3,5.9
	c-18.6,11.3-33.5,26.5-48.2,49.4c-3.4,5.3-6.9,10.6-10.3,15.9c-18.1,28-36.8,56.9-52.9,86.3c-15.4,28.1-17.2,64.9-4.8,98.5
	c11.6,31.5,34,55.6,61.4,66.1c33.5,12.8,72.4,10,104-7.5c23.9-13.1,38.9-32.8,55.4-60.3c7.4-12.4,15.2-24.9,22.6-37
	c3.8-6.1,7.6-12.2,11.3-18.4c0.7-1.2,1.5-2.6,2.3-4.1c18.3-1.4,36.2-4.5,53.3-9.3c17.2-4.8,33.5-11.2,49-19
	C741.8,769.8,730.2,787.9,719,805.5z"/>
<path class="st2" d="M882,506.9c-6.9,12.4-13.5,25.2-20.4,38.8C828,610.9,790,684.8,717,714c-23.4,9.4-49.9,14.3-76.2,14.3
	c-7.1,0-14.1-0.4-21.1-1.1c-35.7-3.7-67.4-16.3-91.7-36.4c-8.4-7-22.1-19.3-30.9-32.3c11.5-15.5,23-26.3,36.9-34.7
	c11.8-7.2,24.8-12,38.2-14.4c7.5,8.1,15.2,14.2,23.6,18.9l0.2-0.3c0,0,0,0,0,0c37.5,18.5,83.2,16.4,119.3-5.5
	c25-15.2,39.1-37.6,53.7-63.2c5.6-9.8,11.9-19.9,18-29.7c16.5-26.5,33.6-53.9,41.1-82c10-37.7,0.9-79-24.4-110.6
	c-20.3-25.3-49.6-38.8-84.6-38.8c0,0-0.1,0-0.1,0c-36.6,0-72.4,16.7-95.7,44.7c-9.4,11.3-17.1,25.4-24.5,39
	c-2.5,4.7-5.1,9.5-7.8,14.1l-19.1,33.4c-12.2,1.3-24.1,3.3-35.7,6.1c-22.4,5.4-43.4,13.4-63.1,23.8c6.7-15.4,15-29.9,23.2-44.2
	c2.9-5.2,6-10.5,8.9-15.7c4.9-8.9,9.9-18.3,14.7-27.3C548.9,317,579,259.9,639,230.7c50.4-24.6,110.9-26.6,161.8-5.3
	c43.9,18.3,79.3,56.2,97.9,104.6c0.2,0.4,0.5,0.9,0.7,1.4l0,0l0.2,0.5c0,0,0,0,0,0l4.1,12.2c0,0,0,0,0,0l0.2,0.5l0,0
	c0.2,0.6,0.3,1.1,0.4,1.7C919.3,398,911.6,453.3,882,506.9z"/>
</svg>
