<?xml version="1.0" encoding="UTF-8" standalone="no"?>
<!-- Generator: Adobe Illustrator 27.9.1, SVG Export Plug-In . SVG Version: 6.00 Build 0)  -->

<svg
   version="1.1"
   id="Layer_1"
   x="0px"
   y="0px"
   viewBox="0 0 19 20"
   style="enable-background:new 0 0 19 20;"
   xml:space="preserve"
   sodipodi:docname="cancel.svg"
   inkscape:version="1.3.2 (091e20ef0f, 2023-11-25, custom)"
   xmlns:inkscape="http://www.inkscape.org/namespaces/inkscape"
   xmlns:sodipodi="http://sodipodi.sourceforge.net/DTD/sodipodi-0.dtd"
   xmlns="http://www.w3.org/2000/svg"
   xmlns:svg="http://www.w3.org/2000/svg"><defs
   id="defs1" /><sodipodi:namedview
   id="namedview1"
   pagecolor="#ffffff"
   bordercolor="#000000"
   borderopacity="0.25"
   inkscape:showpageshadow="2"
   inkscape:pageopacity="0.0"
   inkscape:pagecheckerboard="0"
   inkscape:deskcolor="#d1d1d1"
   inkscape:zoom="38.6"
   inkscape:cx="9.4948187"
   inkscape:cy="10"
   inkscape:window-width="1920"
   inkscape:window-height="1000"
   inkscape:window-x="0"
   inkscape:window-y="0"
   inkscape:window-maximized="1"
   inkscape:current-layer="Layer_1" />
<g
   id="slash-circle-02">
	<g
   id="Icon">
		<path
   d="M9.5,19.4c-2.5,0-4.9-1-6.5-2.7c0,0,0,0-0.1-0.1c0,0,0,0-0.1-0.1c-1.7-1.7-2.7-4-2.7-6.5s1-4.9,2.7-6.5c0,0,0,0,0.1-0.1    c0,0,0,0,0.1-0.1c1.7-1.7,4-2.7,6.5-2.7s4.9,1,6.5,2.7c0,0,0,0,0.1,0.1c0.1,0.1,0,0,0.1,0.1c1.7,1.7,2.7,4,2.7,6.5s-1,4.9-2.7,6.5    c0,0,0,0-0.1,0.1c-0.1,0.1,0,0-0.1,0.1C14.4,18.4,12,19.4,9.5,19.4z M4.7,16.1c1.3,1,3,1.7,4.8,1.7s3.5-0.7,4.8-1.7l-4.8-4.8    L4.7,16.1z M10.7,10.1l4.8,4.8c1-1.3,1.7-3,1.7-4.8s-0.6-3.5-1.7-4.8L10.7,10.1z M3.5,5.4c-1,1.3-1.7,3-1.7,4.8s0.6,3.5,1.7,4.8    l4.8-4.9L3.5,5.4z M4.7,4.2L9.5,9l4.8-4.8c-1.3-1-3-1.7-4.8-1.7C7.7,2.5,6,3.1,4.7,4.2z"
   id="path1" />
	</g>
</g>
<path
   style="fill:#fcfcfc;stroke-width:0.0259067"
   d="M 8.6528497,19.349584 C 8.0945417,19.297739 7.4284181,19.168942 6.8510824,19.001206 5.8005166,18.695981 4.6594959,18.105848 3.8212435,17.434183 3.4976145,17.174869 2.8036658,16.500655 2.4453953,16.097462 1.1698165,14.66194 0.40099355,12.942922 0.16441989,10.997409 0.1188204,10.622412 0.11810828,9.3796503 0.16328426,9.015544 0.39819925,7.122192 1.0667512,5.5169601 2.1701716,4.1968912 2.508812,3.7917611 3.3234518,2.9926104 3.73205,2.6647091 5.0894003,1.5754316 6.5912601,0.92916308 8.3304604,0.68595745 c 0.4102979,-0.0573751 1.4801751,-0.0793537 1.9465906,-0.039989 2.004689,0.16919242 3.970633,1.01421745 5.324785,2.28876185 0.389612,0.3667081 1.028975,1.0409802 1.259833,1.3286211 1.126163,1.403157 1.807419,3.0815984 1.986684,4.8946797 0.03648,0.3689638 0.0362,1.3191289 -4.87e-4,1.6839379 -0.159097,1.5818 -0.64245,2.975705 -1.459813,4.209844 -0.378386,0.571326 -0.633672,0.869924 -1.355079,1.584981 -0.716733,0.710423 -0.938325,0.896329 -1.527814,1.281764 -1.190072,0.778123 -2.590164,1.266051 -4.071459,1.418892 -0.424461,0.0438 -1.37048,0.05024 -1.7808513,0.01213 z m 1.2165506,-1.551989 c 1.5058817,-0.08743 2.9714487,-0.619123 4.2396787,-1.538114 l 0.210366,-0.152437 -2.412296,-2.412295 -2.4122951,-2.412296 -2.3963907,2.396286 c -1.3180148,1.317957 -2.3963907,2.406682 -2.3963907,2.419389 0,0.02945 0.028152,0.05099 0.3886011,0.297413 1.2132691,0.829454 2.6111471,1.320447 3.9896373,1.401328 0.1781088,0.01045 0.3296632,0.02063 0.3367875,0.02262 0.00712,0.002 0.2106601,-0.0079 0.4523019,-0.02189 z M 5.9204425,12.553011 c 1.3104666,-1.33872 2.3826663,-2.44241 2.3826663,-2.452646 0,-0.0282 -4.7721873,-4.6988106 -4.8010052,-4.6988106 -0.03834,0 -0.356144,0.4539036 -0.5713717,0.8160622 -0.5970942,1.0047171 -0.9524626,2.0261557 -1.0905978,3.134715 -0.052791,0.4236544 -0.053072,1.3017394 -5.597e-4,1.7487044 0.1103627,0.939373 0.3948031,1.876098 0.8061308,2.654767 0.2584135,0.489193 0.7863536,1.249486 0.8589342,1.236962 0.018225,-0.0031 1.1053368,-1.101034 2.4158031,-2.439754 z m 9.7906125,2.082672 c 0.643691,-0.913146 1.138856,-2.036866 1.346378,-3.055446 0.341434,-1.6758626 0.105202,-3.4380217 -0.664522,-4.9569562 -0.209198,-0.4128212 -0.817656,-1.3290645 -0.887782,-1.3368609 -0.0072,-7.95e-4 -1.097155,1.0827511 -2.422227,2.4078806 l -2.409222,2.4093265 2.407712,2.407817 c 1.324243,1.3243 2.416505,2.402384 2.42725,2.395744 0.01075,-0.0066 0.101831,-0.128819 0.202413,-0.271505 z M 11.916476,6.6068396 C 14.212829,4.3103873 14.322693,4.196292 14.273937,4.1585772 14.136288,4.0521003 13.601044,3.6975407 13.397633,3.5780912 12.509601,3.0566088 11.457268,2.6913452 10.427461,2.5471472 9.983649,2.4850027 8.9665269,2.4854257 8.5103627,2.5479445 7.3527725,2.706596 6.334821,3.0685952 5.4431472,3.6386938 5.0850407,3.8676518 4.7020725,4.1601604 4.7020725,4.2047218 c 0,0.028794 4.7640601,4.8108222 4.7927459,4.8108222 0.00718,0 1.0969276,-1.0839168 2.4216576,-2.4087044 z"
   id="path2" /></svg>
