<?xml version="1.0" encoding="UTF-8" standalone="no"?>
<!-- Generator: Adobe Illustrator 27.9.1, SVG Export Plug-In . SVG Version: 6.00 Build 0)  -->

<svg
   version="1.1"
   id="Layer_1"
   x="0px"
   y="0px"
   viewBox="0 0 19 20"
   style="enable-background:new 0 0 19 20;"
   xml:space="preserve"
   sodipodi:docname="confirm.svg"
   inkscape:version="1.3.2 (091e20ef0f, 2023-11-25, custom)"
   xmlns:inkscape="http://www.inkscape.org/namespaces/inkscape"
   xmlns:sodipodi="http://sodipodi.sourceforge.net/DTD/sodipodi-0.dtd"
   xmlns="http://www.w3.org/2000/svg"
   xmlns:svg="http://www.w3.org/2000/svg"><defs
   id="defs1" /><sodipodi:namedview
   id="namedview1"
   pagecolor="#ffffff"
   bordercolor="#000000"
   borderopacity="0.25"
   inkscape:showpageshadow="2"
   inkscape:pageopacity="0.0"
   inkscape:pagecheckerboard="0"
   inkscape:deskcolor="#d1d1d1"
   inkscape:zoom="38.6"
   inkscape:cx="9.4948187"
   inkscape:cy="10"
   inkscape:window-width="1920"
   inkscape:window-height="1000"
   inkscape:window-x="0"
   inkscape:window-y="0"
   inkscape:window-maximized="1"
   inkscape:current-layer="Layer_1" />
<g
   id="check-circle">
	<g
   id="Icon_00000070817771302605241390000012277136077757963954_">
		<path
   d="M9.5,19.3c-5.1,0-9.3-4.2-9.3-9.3s4.2-9.3,9.3-9.3s9.3,4.2,9.3,9.3S14.6,19.3,9.5,19.3z M9.5,2.4c-4.2,0-7.6,3.4-7.6,7.6    s3.4,7.6,7.6,7.6s7.6-3.4,7.6-7.6S13.7,2.4,9.5,2.4z M8.2,13.4c-0.2,0-0.4-0.1-0.6-0.2l-2.5-2.5c-0.3-0.3-0.3-0.9,0-1.2    s0.9-0.3,1.2,0l1.9,1.9l4.5-4.5c0.3-0.3,0.9-0.3,1.2,0c0.3,0.3,0.3,0.9,0,1.2l-5.1,5.1C8.7,13.3,8.5,13.4,8.2,13.4z"
   id="path1" />
	</g>
</g>
<path
   style="fill:#fcfcfc;stroke-width:0.0259067;fill-opacity:1"
   d="M 9.0803109,19.270688 C 7.1425604,19.194182 5.2809604,18.484448 3.6917098,17.216288 3.2700754,16.879839 2.6063052,16.214637 2.2691957,15.790704 0.91932842,14.093176 0.22025056,12.117451 0.22025056,10 c 0,-1.8593181 0.53940667,-3.6127666 1.58993324,-5.1683938 C 2.4103645,3.9428544 3.2437049,3.0859532 4.119171,2.4573378 5.3243845,1.5919524 6.8055842,0.99409358 8.2124352,0.80516767 8.8593953,0.71828745 9.7781026,0.69581258 10.357559,0.75269027 c 1.791544,0.1758526 3.508898,0.87584323 4.927415,2.00840683 0.368129,0.2939188 1.157573,1.0837845 1.447975,1.4487475 1.621871,2.0382886 2.324099,4.5851526 1.957202,7.0984454 -0.238418,1.633188 -0.903841,3.157123 -1.956999,4.481865 -0.289354,0.363972 -1.079029,1.153129 -1.448178,1.44723 -1.375177,1.095602 -2.982717,1.773013 -4.715026,1.986896 -0.360646,0.04453 -1.0183063,0.06502 -1.4896371,0.04641 z m 0.9857541,-1.681211 c 2.93893,-0.228605 5.441917,-2.072774 6.523531,-4.806455 0.209316,-0.529029 0.363546,-1.126657 0.460813,-1.785613 0.06485,-0.439361 0.06485,-1.5554567 0,-1.9948183 C 16.856015,7.6856199 16.409113,6.557085 15.685947,5.5569948 13.905884,3.0952866 10.909034,1.9366627 7.9173041,2.5535287 5.1155938,3.1312145 2.8227816,5.3277873 2.1289923,8.0988798 1.9554392,8.7920756 1.8965104,9.2739658 1.8965104,10 c 0,1.19717 0.2340192,2.236036 0.7440716,3.303109 1.3443703,2.812536 4.3164986,4.5282 7.425483,4.286368 z"
   id="path2" /><path
   style="fill:#fcfcfc;fill-opacity:1;stroke-width:0.0259067"
   d="M 8.043743,13.366962 C 7.9937085,13.355073 7.8771282,13.310792 7.7846756,13.26856 7.62985,13.197837 7.5139008,13.088801 6.315872,11.887338 4.8485246,10.415785 4.900697,10.481444 4.8985351,10.103627 c -0.00105,-0.1840607 0.00969,-0.2435962 0.06542,-0.3626944 0.1373225,-0.2934424 0.3827776,-0.4404145 0.735527,-0.4404145 0.1322563,0 0.2392031,0.017271 0.3422924,0.055277 0.1393009,0.051357 0.2211599,0.1261811 1.1541092,1.0549339 l 1.0041738,0.999656 2.2989345,-2.2943655 c 2.590221,-2.5850732 2.393814,-2.415715 2.804117,-2.4179362 0.189787,-0.00103 0.240465,0.00876 0.366853,0.070823 0.08066,0.039608 0.187084,0.1167748 0.236508,0.1714811 0.193262,0.2139182 0.253614,0.5782804 0.145097,0.8759983 -0.05225,0.1433439 -0.170413,0.2658999 -2.687824,2.7877173 -1.4482451,1.450779 -2.673976,2.658864 -2.7238464,2.684631 -0.1747972,0.09032 -0.4134679,0.121636 -0.5961534,0.07823 z"
   id="path3" /></svg>
